<?xml version="1.0" encoding="utf-8"?>
<!-- Generator: Adobe Illustrator 21.0.0, SVG Export Plug-In . SVG Version: 6.00 Build 0)  -->
<svg version="1.1" id="Layer_1" xmlns="http://www.w3.org/2000/svg" xmlns:xlink="http://www.w3.org/1999/xlink" x="0px" y="0px"
	 viewBox="0 0 21.5 21.5" style="enable-background:new 0 0 21.5 21.5;" xml:space="preserve">
<style type="text/css">
	.st0{fill:#FFFFFF;}
</style>
<title>Artboard 52 copy 3</title>
<g id="Layer_1_1_">
	<path class="st0" d="M10.8,0.5C5.1,0.5,0.5,5.1,0.5,10.8S5.1,21,10.8,21C16.4,21,21,16.4,21,10.8C21,5.1,16.4,0.5,10.8,0.5z
		 M13.9,6.3h-1.2c-1,0-1.2,0.5-1.2,1.2V9h2.3l-0.3,2.4h-2v6H9v-6H7V9h2V7.2c-0.2-1.6,1-3,2.5-3.1c0.2,0,0.3,0,0.5,0
		c0.6,0,1.2,0,1.8,0.1L13.9,6.3z"/>
</g>
</svg>
