<svg id="Layer_1" data-name="Layer 1" xmlns="http://www.w3.org/2000/svg" viewBox="0 0 49.88 44.15"><defs><style>.cls-1{fill:#FFFFFF;}</style></defs><title>Icon - menu</title><path class="cls-1" d="M9.54,20.44h3.69v22H10.6V26.9L8,42.44H6.71L4.14,26.9V42.44H1.56v-22H5.19L7.37,31.39Z"/><path class="cls-1" d="M23.76,20.44v2.87H19.41v6.17h3v2.87h-3v7.22H24v2.87H16.34v-22Z"/><path class="cls-1" d="M36.51,42.44H33.44L29.82,30.89V42.44H26.75v-22h2.64l4.06,13v-13h3.07Z"/><path class="cls-1" d="M42.68,38.12c0,1.25.4,1.78,1.29,1.78s1.29-.53,1.29-1.78V20.44h3.07V36.86c0,2.6-.1,3.17-.69,4.12a4.65,4.65,0,0,1-7.32,0c-.59-1-.69-1.52-.69-4.12V20.44h3.07Z"/><rect class="cls-1" x="4.69" y="1.38" width="8.25" height="8.25"/><rect class="cls-1" x="20.81" y="1.38" width="8.25" height="8.25"/><rect class="cls-1" x="37.08" y="1.38" width="8.25" height="8.25"/></svg>