<?xml version="1.0" encoding="utf-8"?>
<!-- Generator: Adobe Illustrator 21.0.0, SVG Export Plug-In . SVG Version: 6.00 Build 0)  -->
<svg version="1.1" id="Layer_1" xmlns="http://www.w3.org/2000/svg" xmlns:xlink="http://www.w3.org/1999/xlink" x="0px" y="0px"
	 viewBox="0 0 21.4 21.4" style="enable-background:new 0 0 21.4 21.4;" xml:space="preserve">
<style type="text/css">
	.st0{fill:#FFFFFF;}
</style>
<title>Artboard 56 copy 3</title>
<g id="Layer_1_1_">
	<path class="st0" d="M15.4,7.1c-0.2-0.5-0.6-0.9-1.1-1.1c-0.4-0.1-0.7-0.2-1.1-0.2c-0.6,0-0.8,0-2.4,0s-1.8,0-2.4,0
		C7.9,5.8,7.5,5.9,7.1,6C6.6,6.2,6.2,6.6,6,7.1C5.9,7.5,5.8,7.9,5.8,8.2c0,0.6,0,0.8,0,2.4s0,1.8,0,2.4c0,0.4,0.1,0.8,0.2,1.1
		c0.2,0.5,0.6,0.9,1.2,1.1c0.4,0.1,0.7,0.2,1.1,0.2c0.6,0,0.8,0,2.4,0s1.8,0,2.4,0c0.4,0,0.8-0.1,1.1-0.2c0.5-0.2,0.9-0.6,1.1-1.1
		c0.1-0.4,0.2-0.7,0.2-1.1c0-0.6,0-0.8,0-2.4s0-1.8,0-2.4C15.7,7.9,15.6,7.5,15.4,7.1z M10.7,13.8c-1.7,0-3.1-1.4-3.1-3.1
		S9,7.6,10.7,7.6s3.1,1.4,3.1,3.1l0,0C13.8,12.4,12.4,13.8,10.7,13.8C10.7,13.8,10.7,13.8,10.7,13.8z M13.9,8.2
		c-0.4,0-0.7-0.3-0.7-0.7s0.3-0.7,0.7-0.7s0.7,0.3,0.7,0.7v0C14.7,7.9,14.3,8.2,13.9,8.2L13.9,8.2z"/>
	<circle class="st0" cx="10.7" cy="10.7" r="2"/>
	<path class="st0" d="M10.7,0.5C5,0.5,0.5,5.1,0.5,10.7s4.6,10.2,10.2,10.2c5.6,0,10.2-4.6,10.2-10.2C20.9,5,16.3,0.5,10.7,0.5z
		 M16.7,13.2c0,0.5-0.1,1-0.3,1.5c-0.3,0.8-1,1.5-1.8,1.8c-0.5,0.2-1,0.3-1.5,0.3c-0.6,0-0.9,0-2.5,0s-1.9,0-2.5,0
		c-0.5,0-1-0.1-1.5-0.3c-0.8-0.3-1.5-1-1.8-1.8c-0.2-0.5-0.3-1-0.3-1.5c0-0.6,0-0.9,0-2.5s0-1.9,0-2.5c0-0.5,0.1-1,0.3-1.5
		c0.3-0.8,1-1.5,1.8-1.8c0.5-0.2,1-0.3,1.5-0.3c0.6,0,0.9,0,2.5,0s1.9,0,2.5,0c0.5,0,1,0.1,1.5,0.3c0.8,0.3,1.5,1,1.8,1.8
		c0.2,0.5,0.3,1,0.3,1.5c0,0.6,0,0.9,0,2.5S16.8,12.6,16.7,13.2L16.7,13.2z"/>
</g>
</svg>
